<mxfile host="app.diagrams.net" agent="Mozilla/5.0 (Windows NT 10.0; Win64; x64) AppleWebKit/537.36 (KHTML, like Gecko) Chrome/134.0.0.0 Safari/537.36" version="26.1.1">
  <diagram name="Strona-1" id="71iF-9TCxAWfit0fJqS2">
    <mxGraphModel dx="1579" dy="813" grid="1" gridSize="10" guides="1" tooltips="1" connect="1" arrows="1" fold="1" page="1" pageScale="1" pageWidth="827" pageHeight="1169" math="0" shadow="0">
      <root>
        <mxCell id="0" />
        <mxCell id="1" parent="0" />
        <mxCell id="ZZxbE7lgwn-muwn7ENjY-48" value="Książka" style="swimlane;fontStyle=1;align=center;verticalAlign=top;childLayout=stackLayout;horizontal=1;startSize=26;horizontalStack=0;resizeParent=1;resizeParentMax=0;resizeLast=0;collapsible=1;marginBottom=0;whiteSpace=wrap;html=1;" vertex="1" parent="1">
          <mxGeometry x="64" y="260" width="160" height="156" as="geometry" />
        </mxCell>
        <mxCell id="ZZxbE7lgwn-muwn7ENjY-49" value="tytuł&lt;div&gt;autor&lt;/div&gt;&lt;div&gt;wydawca&lt;/div&gt;&lt;div&gt;ISBN&lt;/div&gt;&lt;div&gt;kategoria&lt;/div&gt;" style="text;strokeColor=none;fillColor=none;align=left;verticalAlign=top;spacingLeft=4;spacingRight=4;overflow=hidden;rotatable=0;points=[[0,0.5],[1,0.5]];portConstraint=eastwest;whiteSpace=wrap;html=1;" vertex="1" parent="ZZxbE7lgwn-muwn7ENjY-48">
          <mxGeometry y="26" width="160" height="84" as="geometry" />
        </mxCell>
        <mxCell id="ZZxbE7lgwn-muwn7ENjY-50" value="" style="line;strokeWidth=1;fillColor=none;align=left;verticalAlign=middle;spacingTop=-1;spacingLeft=3;spacingRight=3;rotatable=0;labelPosition=right;points=[];portConstraint=eastwest;strokeColor=inherit;" vertex="1" parent="ZZxbE7lgwn-muwn7ENjY-48">
          <mxGeometry y="110" width="160" height="20" as="geometry" />
        </mxCell>
        <mxCell id="ZZxbE7lgwn-muwn7ENjY-51" value="+ method(type): type" style="text;strokeColor=none;fillColor=none;align=left;verticalAlign=top;spacingLeft=4;spacingRight=4;overflow=hidden;rotatable=0;points=[[0,0.5],[1,0.5]];portConstraint=eastwest;whiteSpace=wrap;html=1;" vertex="1" parent="ZZxbE7lgwn-muwn7ENjY-48">
          <mxGeometry y="130" width="160" height="26" as="geometry" />
        </mxCell>
        <mxCell id="ZZxbE7lgwn-muwn7ENjY-52" value="Biblioteka" style="swimlane;fontStyle=1;align=center;verticalAlign=top;childLayout=stackLayout;horizontal=1;startSize=26;horizontalStack=0;resizeParent=1;resizeParentMax=0;resizeLast=0;collapsible=1;marginBottom=0;whiteSpace=wrap;html=1;" vertex="1" parent="1">
          <mxGeometry x="350" y="40" width="160" height="190" as="geometry" />
        </mxCell>
        <mxCell id="ZZxbE7lgwn-muwn7ENjY-53" value="nazwa&lt;div&gt;adres&lt;/div&gt;" style="text;strokeColor=none;fillColor=none;align=left;verticalAlign=top;spacingLeft=4;spacingRight=4;overflow=hidden;rotatable=0;points=[[0,0.5],[1,0.5]];portConstraint=eastwest;whiteSpace=wrap;html=1;" vertex="1" parent="ZZxbE7lgwn-muwn7ENjY-52">
          <mxGeometry y="26" width="160" height="54" as="geometry" />
        </mxCell>
        <mxCell id="ZZxbE7lgwn-muwn7ENjY-54" value="" style="line;strokeWidth=1;fillColor=none;align=left;verticalAlign=middle;spacingTop=-1;spacingLeft=3;spacingRight=3;rotatable=0;labelPosition=right;points=[];portConstraint=eastwest;strokeColor=inherit;" vertex="1" parent="ZZxbE7lgwn-muwn7ENjY-52">
          <mxGeometry y="80" width="160" height="8" as="geometry" />
        </mxCell>
        <mxCell id="ZZxbE7lgwn-muwn7ENjY-55" value="zarządza książkami&lt;div&gt;zarządza wypożyczeniami&lt;/div&gt;&lt;div&gt;zarządza rezerwacjami&lt;/div&gt;&lt;div&gt;zarządza pracownikami&lt;/div&gt;&lt;div&gt;zarządza wypożyczającymi&lt;/div&gt;" style="text;strokeColor=none;fillColor=none;align=left;verticalAlign=top;spacingLeft=4;spacingRight=4;overflow=hidden;rotatable=0;points=[[0,0.5],[1,0.5]];portConstraint=eastwest;whiteSpace=wrap;html=1;" vertex="1" parent="ZZxbE7lgwn-muwn7ENjY-52">
          <mxGeometry y="88" width="160" height="102" as="geometry" />
        </mxCell>
        <mxCell id="ZZxbE7lgwn-muwn7ENjY-56" value="Bibiotekarz" style="swimlane;fontStyle=1;align=center;verticalAlign=top;childLayout=stackLayout;horizontal=1;startSize=26;horizontalStack=0;resizeParent=1;resizeParentMax=0;resizeLast=0;collapsible=1;marginBottom=0;whiteSpace=wrap;html=1;" vertex="1" parent="1">
          <mxGeometry x="340" y="480" width="160" height="150" as="geometry" />
        </mxCell>
        <mxCell id="ZZxbE7lgwn-muwn7ENjY-57" value="&lt;div&gt;&lt;span style=&quot;background-color: transparent; color: light-dark(rgb(0, 0, 0), rgb(255, 255, 255));&quot;&gt;imię i nazwisko&lt;/span&gt;&lt;/div&gt;&lt;div&gt;&lt;span style=&quot;background-color: transparent; color: light-dark(rgb(0, 0, 0), rgb(255, 255, 255));&quot;&gt;adres&lt;/span&gt;&lt;/div&gt;&lt;div&gt;&lt;span style=&quot;background-color: transparent; color: light-dark(rgb(0, 0, 0), rgb(255, 255, 255));&quot;&gt;nr karty bibliotecznej&lt;/span&gt;&lt;/div&gt;&lt;span style=&quot;background-color: transparent; color: light-dark(rgb(0, 0, 0), rgb(255, 255, 255));&quot;&gt;nr pracownika&lt;/span&gt;" style="text;strokeColor=none;fillColor=none;align=left;verticalAlign=top;spacingLeft=4;spacingRight=4;overflow=hidden;rotatable=0;points=[[0,0.5],[1,0.5]];portConstraint=eastwest;whiteSpace=wrap;html=1;" vertex="1" parent="ZZxbE7lgwn-muwn7ENjY-56">
          <mxGeometry y="26" width="160" height="74" as="geometry" />
        </mxCell>
        <mxCell id="ZZxbE7lgwn-muwn7ENjY-58" value="" style="line;strokeWidth=1;fillColor=none;align=left;verticalAlign=middle;spacingTop=-1;spacingLeft=3;spacingRight=3;rotatable=0;labelPosition=right;points=[];portConstraint=eastwest;strokeColor=inherit;" vertex="1" parent="ZZxbE7lgwn-muwn7ENjY-56">
          <mxGeometry y="100" width="160" height="8" as="geometry" />
        </mxCell>
        <mxCell id="ZZxbE7lgwn-muwn7ENjY-59" value="zaloguj&lt;div&gt;wyloguj&lt;/div&gt;" style="text;strokeColor=none;fillColor=none;align=left;verticalAlign=top;spacingLeft=4;spacingRight=4;overflow=hidden;rotatable=0;points=[[0,0.5],[1,0.5]];portConstraint=eastwest;whiteSpace=wrap;html=1;" vertex="1" parent="ZZxbE7lgwn-muwn7ENjY-56">
          <mxGeometry y="108" width="160" height="42" as="geometry" />
        </mxCell>
        <mxCell id="ZZxbE7lgwn-muwn7ENjY-60" value="Egzemplarz" style="swimlane;fontStyle=1;align=center;verticalAlign=top;childLayout=stackLayout;horizontal=1;startSize=26;horizontalStack=0;resizeParent=1;resizeParentMax=0;resizeLast=0;collapsible=1;marginBottom=0;whiteSpace=wrap;html=1;" vertex="1" parent="1">
          <mxGeometry y="480" width="160" height="170" as="geometry" />
        </mxCell>
        <mxCell id="ZZxbE7lgwn-muwn7ENjY-61" value="&lt;div&gt;tytuł&lt;div&gt;autor&lt;/div&gt;&lt;div&gt;wydawca&lt;/div&gt;&lt;div&gt;ISBN&lt;/div&gt;&lt;div&gt;kategoria&lt;/div&gt;&lt;/div&gt;nr egzemplarza&lt;div&gt;data zakupu&lt;/div&gt;" style="text;strokeColor=none;fillColor=none;align=left;verticalAlign=top;spacingLeft=4;spacingRight=4;overflow=hidden;rotatable=0;points=[[0,0.5],[1,0.5]];portConstraint=eastwest;whiteSpace=wrap;html=1;" vertex="1" parent="ZZxbE7lgwn-muwn7ENjY-60">
          <mxGeometry y="26" width="160" height="114" as="geometry" />
        </mxCell>
        <mxCell id="ZZxbE7lgwn-muwn7ENjY-62" value="" style="line;strokeWidth=1;fillColor=none;align=left;verticalAlign=middle;spacingTop=-1;spacingLeft=3;spacingRight=3;rotatable=0;labelPosition=right;points=[];portConstraint=eastwest;strokeColor=inherit;" vertex="1" parent="ZZxbE7lgwn-muwn7ENjY-60">
          <mxGeometry y="140" width="160" height="30" as="geometry" />
        </mxCell>
        <mxCell id="ZZxbE7lgwn-muwn7ENjY-64" value="Kategoria" style="swimlane;fontStyle=1;align=center;verticalAlign=top;childLayout=stackLayout;horizontal=1;startSize=26;horizontalStack=0;resizeParent=1;resizeParentMax=0;resizeLast=0;collapsible=1;marginBottom=0;whiteSpace=wrap;html=1;" vertex="1" parent="1">
          <mxGeometry x="170" y="480" width="160" height="130" as="geometry" />
        </mxCell>
        <mxCell id="ZZxbE7lgwn-muwn7ENjY-65" value="nazwa&lt;div&gt;skrót&lt;/div&gt;" style="text;strokeColor=none;fillColor=none;align=left;verticalAlign=top;spacingLeft=4;spacingRight=4;overflow=hidden;rotatable=0;points=[[0,0.5],[1,0.5]];portConstraint=eastwest;whiteSpace=wrap;html=1;" vertex="1" parent="ZZxbE7lgwn-muwn7ENjY-64">
          <mxGeometry y="26" width="160" height="44" as="geometry" />
        </mxCell>
        <mxCell id="ZZxbE7lgwn-muwn7ENjY-66" value="" style="line;strokeWidth=1;fillColor=none;align=left;verticalAlign=middle;spacingTop=-1;spacingLeft=3;spacingRight=3;rotatable=0;labelPosition=right;points=[];portConstraint=eastwest;strokeColor=inherit;" vertex="1" parent="ZZxbE7lgwn-muwn7ENjY-64">
          <mxGeometry y="70" width="160" height="8" as="geometry" />
        </mxCell>
        <mxCell id="ZZxbE7lgwn-muwn7ENjY-67" value="dodaj kategorię&lt;div&gt;usuń kategorię&lt;/div&gt;&lt;div&gt;modyfikuj kategorię&lt;/div&gt;" style="text;strokeColor=none;fillColor=none;align=left;verticalAlign=top;spacingLeft=4;spacingRight=4;overflow=hidden;rotatable=0;points=[[0,0.5],[1,0.5]];portConstraint=eastwest;whiteSpace=wrap;html=1;" vertex="1" parent="ZZxbE7lgwn-muwn7ENjY-64">
          <mxGeometry y="78" width="160" height="52" as="geometry" />
        </mxCell>
        <mxCell id="ZZxbE7lgwn-muwn7ENjY-68" value="Rezerwacja" style="swimlane;fontStyle=1;align=center;verticalAlign=top;childLayout=stackLayout;horizontal=1;startSize=26;horizontalStack=0;resizeParent=1;resizeParentMax=0;resizeLast=0;collapsible=1;marginBottom=0;whiteSpace=wrap;html=1;" vertex="1" parent="1">
          <mxGeometry x="510" y="480" width="160" height="150" as="geometry" />
        </mxCell>
        <mxCell id="ZZxbE7lgwn-muwn7ENjY-69" value="data rezerwacji" style="text;strokeColor=none;fillColor=none;align=left;verticalAlign=top;spacingLeft=4;spacingRight=4;overflow=hidden;rotatable=0;points=[[0,0.5],[1,0.5]];portConstraint=eastwest;whiteSpace=wrap;html=1;" vertex="1" parent="ZZxbE7lgwn-muwn7ENjY-68">
          <mxGeometry y="26" width="160" height="24" as="geometry" />
        </mxCell>
        <mxCell id="ZZxbE7lgwn-muwn7ENjY-70" value="" style="line;strokeWidth=1;fillColor=none;align=left;verticalAlign=middle;spacingTop=-1;spacingLeft=3;spacingRight=3;rotatable=0;labelPosition=right;points=[];portConstraint=eastwest;strokeColor=inherit;" vertex="1" parent="ZZxbE7lgwn-muwn7ENjY-68">
          <mxGeometry y="50" width="160" height="38" as="geometry" />
        </mxCell>
        <mxCell id="ZZxbE7lgwn-muwn7ENjY-71" value="utwórz rezerwację&lt;div&gt;anuluj rezerwację&amp;nbsp;&lt;/div&gt;&lt;div&gt;sprawdź status rezerwacji&lt;/div&gt;" style="text;strokeColor=none;fillColor=none;align=left;verticalAlign=top;spacingLeft=4;spacingRight=4;overflow=hidden;rotatable=0;points=[[0,0.5],[1,0.5]];portConstraint=eastwest;whiteSpace=wrap;html=1;" vertex="1" parent="ZZxbE7lgwn-muwn7ENjY-68">
          <mxGeometry y="88" width="160" height="62" as="geometry" />
        </mxCell>
        <mxCell id="ZZxbE7lgwn-muwn7ENjY-72" value="Wypożyczający" style="swimlane;fontStyle=1;align=center;verticalAlign=top;childLayout=stackLayout;horizontal=1;startSize=26;horizontalStack=0;resizeParent=1;resizeParentMax=0;resizeLast=0;collapsible=1;marginBottom=0;whiteSpace=wrap;html=1;" vertex="1" parent="1">
          <mxGeometry x="640" y="226" width="160" height="190" as="geometry" />
        </mxCell>
        <mxCell id="ZZxbE7lgwn-muwn7ENjY-73" value="pesel&lt;div&gt;imię&lt;/div&gt;&lt;div&gt;nazwisko&lt;/div&gt;&lt;div&gt;adres&lt;/div&gt;&lt;div&gt;nr karty bibliotecznej&lt;/div&gt;" style="text;strokeColor=none;fillColor=none;align=left;verticalAlign=top;spacingLeft=4;spacingRight=4;overflow=hidden;rotatable=0;points=[[0,0.5],[1,0.5]];portConstraint=eastwest;whiteSpace=wrap;html=1;" vertex="1" parent="ZZxbE7lgwn-muwn7ENjY-72">
          <mxGeometry y="26" width="160" height="84" as="geometry" />
        </mxCell>
        <mxCell id="ZZxbE7lgwn-muwn7ENjY-74" value="" style="line;strokeWidth=1;fillColor=none;align=left;verticalAlign=middle;spacingTop=-1;spacingLeft=3;spacingRight=3;rotatable=0;labelPosition=right;points=[];portConstraint=eastwest;strokeColor=inherit;" vertex="1" parent="ZZxbE7lgwn-muwn7ENjY-72">
          <mxGeometry y="110" width="160" height="8" as="geometry" />
        </mxCell>
        <mxCell id="ZZxbE7lgwn-muwn7ENjY-75" value="zrejestruj wypożyczającego&lt;div&gt;modyfikuj dane wypożyczającego&lt;/div&gt;&lt;div&gt;usuń wypożyczającgo&lt;/div&gt;" style="text;strokeColor=none;fillColor=none;align=left;verticalAlign=top;spacingLeft=4;spacingRight=4;overflow=hidden;rotatable=0;points=[[0,0.5],[1,0.5]];portConstraint=eastwest;whiteSpace=wrap;html=1;" vertex="1" parent="ZZxbE7lgwn-muwn7ENjY-72">
          <mxGeometry y="118" width="160" height="72" as="geometry" />
        </mxCell>
        <mxCell id="ZZxbE7lgwn-muwn7ENjY-84" value="dokonuje" style="html=1;verticalAlign=bottom;endArrow=open;curved=0;rounded=0;entryX=1;entryY=0.5;entryDx=0;entryDy=0;startFill=0;endFill=0;" edge="1" parent="ZZxbE7lgwn-muwn7ENjY-72" target="ZZxbE7lgwn-muwn7ENjY-77">
          <mxGeometry width="80" relative="1" as="geometry">
            <mxPoint x="80" y="194" as="sourcePoint" />
            <mxPoint x="156" y="160" as="targetPoint" />
            <Array as="points">
              <mxPoint x="86" y="330" />
            </Array>
          </mxGeometry>
        </mxCell>
        <mxCell id="ZZxbE7lgwn-muwn7ENjY-76" value="Wypożyczenie" style="swimlane;fontStyle=1;align=center;verticalAlign=top;childLayout=stackLayout;horizontal=1;startSize=26;horizontalStack=0;resizeParent=1;resizeParentMax=0;resizeLast=0;collapsible=1;marginBottom=0;whiteSpace=wrap;html=1;" vertex="1" parent="1">
          <mxGeometry x="440" y="680" width="160" height="140" as="geometry" />
        </mxCell>
        <mxCell id="ZZxbE7lgwn-muwn7ENjY-77" value="data wypożyczenia&lt;div&gt;data zwrotu&lt;/div&gt;" style="text;strokeColor=none;fillColor=none;align=left;verticalAlign=top;spacingLeft=4;spacingRight=4;overflow=hidden;rotatable=0;points=[[0,0.5],[1,0.5]];portConstraint=eastwest;whiteSpace=wrap;html=1;" vertex="1" parent="ZZxbE7lgwn-muwn7ENjY-76">
          <mxGeometry y="26" width="160" height="44" as="geometry" />
        </mxCell>
        <mxCell id="ZZxbE7lgwn-muwn7ENjY-78" value="" style="line;strokeWidth=1;fillColor=none;align=left;verticalAlign=middle;spacingTop=-1;spacingLeft=3;spacingRight=3;rotatable=0;labelPosition=right;points=[];portConstraint=eastwest;strokeColor=inherit;" vertex="1" parent="ZZxbE7lgwn-muwn7ENjY-76">
          <mxGeometry y="70" width="160" height="8" as="geometry" />
        </mxCell>
        <mxCell id="ZZxbE7lgwn-muwn7ENjY-79" value="utwórz wypożyczenie&lt;div&gt;potwierdzenie zwrotu&lt;/div&gt;&lt;div&gt;sprawdź termin zwrotu&lt;/div&gt;" style="text;strokeColor=none;fillColor=none;align=left;verticalAlign=top;spacingLeft=4;spacingRight=4;overflow=hidden;rotatable=0;points=[[0,0.5],[1,0.5]];portConstraint=eastwest;whiteSpace=wrap;html=1;" vertex="1" parent="ZZxbE7lgwn-muwn7ENjY-76">
          <mxGeometry y="78" width="160" height="62" as="geometry" />
        </mxCell>
        <mxCell id="ZZxbE7lgwn-muwn7ENjY-80" value="" style="endArrow=none;html=1;rounded=0;entryX=-0.019;entryY=0.667;entryDx=0;entryDy=0;entryPerimeter=0;" edge="1" parent="1" target="ZZxbE7lgwn-muwn7ENjY-53">
          <mxGeometry width="50" height="50" relative="1" as="geometry">
            <mxPoint x="154" y="260" as="sourcePoint" />
            <mxPoint x="204" y="210" as="targetPoint" />
          </mxGeometry>
        </mxCell>
        <mxCell id="ZZxbE7lgwn-muwn7ENjY-82" value="zatrudnia" style="html=1;verticalAlign=bottom;endArrow=open;curved=0;rounded=0;exitX=0.431;exitY=1.024;exitDx=0;exitDy=0;exitPerimeter=0;entryX=0.5;entryY=0;entryDx=0;entryDy=0;startFill=0;endFill=0;" edge="1" parent="1" source="ZZxbE7lgwn-muwn7ENjY-55" target="ZZxbE7lgwn-muwn7ENjY-56">
          <mxGeometry width="80" relative="1" as="geometry">
            <mxPoint x="350" y="290" as="sourcePoint" />
            <mxPoint x="430" y="290" as="targetPoint" />
          </mxGeometry>
        </mxCell>
        <mxCell id="ZZxbE7lgwn-muwn7ENjY-83" value="dokonuje" style="endArrow=open;endSize=12;html=1;rounded=0;entryX=0.5;entryY=0;entryDx=0;entryDy=0;startFill=0;endFill=0;" edge="1" parent="1" target="ZZxbE7lgwn-muwn7ENjY-68">
          <mxGeometry width="160" relative="1" as="geometry">
            <mxPoint x="640" y="400" as="sourcePoint" />
            <mxPoint x="800" y="400" as="targetPoint" />
          </mxGeometry>
        </mxCell>
        <mxCell id="ZZxbE7lgwn-muwn7ENjY-85" value="rejestruje" style="html=1;verticalAlign=bottom;endArrow=open;curved=0;rounded=0;entryX=1.013;entryY=0.818;entryDx=0;entryDy=0;entryPerimeter=0;exitX=1;exitY=0.5;exitDx=0;exitDy=0;startFill=0;endFill=0;" edge="1" parent="1" source="ZZxbE7lgwn-muwn7ENjY-53" target="ZZxbE7lgwn-muwn7ENjY-77">
          <mxGeometry width="80" relative="1" as="geometry">
            <mxPoint x="494" y="184.5" as="sourcePoint" />
            <mxPoint x="574" y="184.5" as="targetPoint" />
            <Array as="points">
              <mxPoint x="830" y="210" />
              <mxPoint x="830" y="650" />
            </Array>
          </mxGeometry>
        </mxCell>
        <mxCell id="ZZxbE7lgwn-muwn7ENjY-86" value="potwierdza" style="html=1;verticalAlign=bottom;endArrow=open;curved=0;rounded=0;entryX=0;entryY=0.5;entryDx=0;entryDy=0;startFill=0;exitX=0.438;exitY=1;exitDx=0;exitDy=0;exitPerimeter=0;endFill=0;" edge="1" parent="1" source="ZZxbE7lgwn-muwn7ENjY-59" target="ZZxbE7lgwn-muwn7ENjY-77">
          <mxGeometry width="80" relative="1" as="geometry">
            <mxPoint x="410" y="640" as="sourcePoint" />
            <mxPoint x="494" y="614" as="targetPoint" />
            <Array as="points">
              <mxPoint x="410" y="680" />
            </Array>
          </mxGeometry>
        </mxCell>
        <mxCell id="ZZxbE7lgwn-muwn7ENjY-87" value="dotyczy" style="html=1;verticalAlign=bottom;endArrow=open;curved=0;rounded=0;startFill=0;endFill=0;" edge="1" parent="1">
          <mxGeometry x="-0.3861" width="80" relative="1" as="geometry">
            <mxPoint x="224" y="360" as="sourcePoint" />
            <mxPoint x="580" y="480" as="targetPoint" />
            <Array as="points" />
            <mxPoint as="offset" />
          </mxGeometry>
        </mxCell>
        <mxCell id="ZZxbE7lgwn-muwn7ENjY-89" value="posiada" style="html=1;verticalAlign=bottom;endArrow=open;curved=0;rounded=0;entryX=0.5;entryY=0;entryDx=0;entryDy=0;startFill=0;endFill=0;" edge="1" parent="1" target="ZZxbE7lgwn-muwn7ENjY-60">
          <mxGeometry x="0.3258" y="-16" width="80" relative="1" as="geometry">
            <mxPoint x="120" y="416" as="sourcePoint" />
            <mxPoint x="200" y="416" as="targetPoint" />
            <mxPoint as="offset" />
          </mxGeometry>
        </mxCell>
        <mxCell id="ZZxbE7lgwn-muwn7ENjY-90" value="należy do" style="html=1;verticalAlign=bottom;endArrow=openThin;curved=0;rounded=0;entryX=0.5;entryY=0;entryDx=0;entryDy=0;startFill=0;endFill=0;" edge="1" parent="1" target="ZZxbE7lgwn-muwn7ENjY-64">
          <mxGeometry width="80" relative="1" as="geometry">
            <mxPoint x="190" y="416" as="sourcePoint" />
            <mxPoint x="270" y="416" as="targetPoint" />
          </mxGeometry>
        </mxCell>
        <mxCell id="ZZxbE7lgwn-muwn7ENjY-92" value="obsługuje" style="html=1;verticalAlign=bottom;endArrow=open;curved=0;rounded=0;entryX=0.006;entryY=0.119;entryDx=0;entryDy=0;entryPerimeter=0;exitX=0.133;exitY=0.733;exitDx=0;exitDy=0;exitPerimeter=0;startFill=0;endFill=0;" edge="1" parent="1" source="ZZxbE7lgwn-muwn7ENjY-100" target="ZZxbE7lgwn-muwn7ENjY-72">
          <mxGeometry width="80" relative="1" as="geometry">
            <mxPoint x="500" y="210" as="sourcePoint" />
            <mxPoint x="570" y="210" as="targetPoint" />
          </mxGeometry>
        </mxCell>
        <mxCell id="ZZxbE7lgwn-muwn7ENjY-93" value="1" style="text;html=1;align=center;verticalAlign=middle;resizable=0;points=[];autosize=1;strokeColor=none;fillColor=none;" vertex="1" parent="1">
          <mxGeometry x="224" y="340" width="30" height="30" as="geometry" />
        </mxCell>
        <mxCell id="ZZxbE7lgwn-muwn7ENjY-94" value="1" style="text;html=1;align=center;verticalAlign=middle;resizable=0;points=[];autosize=1;strokeColor=none;fillColor=none;" vertex="1" parent="1">
          <mxGeometry x="80" y="410" width="30" height="30" as="geometry" />
        </mxCell>
        <mxCell id="ZZxbE7lgwn-muwn7ENjY-95" value="1" style="text;html=1;align=center;verticalAlign=middle;resizable=0;points=[];autosize=1;strokeColor=none;fillColor=none;" vertex="1" parent="1">
          <mxGeometry x="140" y="650" width="30" height="30" as="geometry" />
        </mxCell>
        <mxCell id="ZZxbE7lgwn-muwn7ENjY-96" value="1" style="text;html=1;align=center;verticalAlign=middle;resizable=0;points=[];autosize=1;strokeColor=none;fillColor=none;" vertex="1" parent="1">
          <mxGeometry x="250" y="460" width="30" height="30" as="geometry" />
        </mxCell>
        <mxCell id="ZZxbE7lgwn-muwn7ENjY-97" value="1" style="text;html=1;align=center;verticalAlign=middle;resizable=0;points=[];autosize=1;strokeColor=none;fillColor=none;" vertex="1" parent="1">
          <mxGeometry x="390" y="220" width="30" height="30" as="geometry" />
        </mxCell>
        <mxCell id="ZZxbE7lgwn-muwn7ENjY-98" value="1" style="text;html=1;align=center;verticalAlign=middle;resizable=0;points=[];autosize=1;strokeColor=none;fillColor=none;" vertex="1" parent="1">
          <mxGeometry x="320" y="120" width="30" height="30" as="geometry" />
        </mxCell>
        <mxCell id="ZZxbE7lgwn-muwn7ENjY-99" value="1" style="text;html=1;align=center;verticalAlign=middle;resizable=0;points=[];autosize=1;strokeColor=none;fillColor=none;" vertex="1" parent="1">
          <mxGeometry x="490" y="220" width="30" height="30" as="geometry" />
        </mxCell>
        <mxCell id="ZZxbE7lgwn-muwn7ENjY-100" value="1" style="text;html=1;align=center;verticalAlign=middle;resizable=0;points=[];autosize=1;strokeColor=none;fillColor=none;" vertex="1" parent="1">
          <mxGeometry x="510" y="130" width="30" height="30" as="geometry" />
        </mxCell>
        <mxCell id="ZZxbE7lgwn-muwn7ENjY-101" value="1" style="text;html=1;align=center;verticalAlign=middle;resizable=0;points=[];autosize=1;strokeColor=none;fillColor=none;" vertex="1" parent="1">
          <mxGeometry x="505" y="70" width="30" height="30" as="geometry" />
        </mxCell>
        <mxCell id="ZZxbE7lgwn-muwn7ENjY-103" value="0..*" style="text;html=1;align=center;verticalAlign=middle;resizable=0;points=[];autosize=1;strokeColor=none;fillColor=none;" vertex="1" parent="1">
          <mxGeometry x="600" y="740" width="40" height="30" as="geometry" />
        </mxCell>
        <mxCell id="ZZxbE7lgwn-muwn7ENjY-104" value="0..*" style="text;html=1;align=center;verticalAlign=middle;resizable=0;points=[];autosize=1;strokeColor=none;fillColor=none;" vertex="1" parent="1">
          <mxGeometry x="600" y="710" width="40" height="30" as="geometry" />
        </mxCell>
        <mxCell id="ZZxbE7lgwn-muwn7ENjY-105" value="0..*" style="text;html=1;align=center;verticalAlign=middle;resizable=0;points=[];autosize=1;strokeColor=none;fillColor=none;" vertex="1" parent="1">
          <mxGeometry x="400" y="740" width="40" height="30" as="geometry" />
        </mxCell>
        <mxCell id="ZZxbE7lgwn-muwn7ENjY-106" value="0..*" style="text;html=1;align=center;verticalAlign=middle;resizable=0;points=[];autosize=1;strokeColor=none;fillColor=none;" vertex="1" parent="1">
          <mxGeometry x="400" y="710" width="40" height="30" as="geometry" />
        </mxCell>
        <mxCell id="ZZxbE7lgwn-muwn7ENjY-107" value="0..*" style="text;html=1;align=center;verticalAlign=middle;resizable=0;points=[];autosize=1;strokeColor=none;fillColor=none;" vertex="1" parent="1">
          <mxGeometry x="420" y="460" width="40" height="30" as="geometry" />
        </mxCell>
        <mxCell id="ZZxbE7lgwn-muwn7ENjY-108" value="0..*" style="text;html=1;align=center;verticalAlign=middle;resizable=0;points=[];autosize=1;strokeColor=none;fillColor=none;" vertex="1" parent="1">
          <mxGeometry x="550" y="450" width="40" height="30" as="geometry" />
        </mxCell>
        <mxCell id="ZZxbE7lgwn-muwn7ENjY-109" value="0..*" style="text;html=1;align=center;verticalAlign=middle;resizable=0;points=[];autosize=1;strokeColor=none;fillColor=none;" vertex="1" parent="1">
          <mxGeometry x="600" y="460" width="40" height="30" as="geometry" />
        </mxCell>
        <mxCell id="ZZxbE7lgwn-muwn7ENjY-110" value="1..*" style="text;html=1;align=center;verticalAlign=middle;resizable=0;points=[];autosize=1;strokeColor=none;fillColor=none;" vertex="1" parent="1">
          <mxGeometry x="90" y="458" width="40" height="30" as="geometry" />
        </mxCell>
        <mxCell id="ZZxbE7lgwn-muwn7ENjY-91" value="zarządza" style="html=1;verticalAlign=bottom;endArrow=open;curved=0;rounded=0;startFill=0;exitX=1.025;exitY=0.961;exitDx=0;exitDy=0;exitPerimeter=0;entryX=1.075;entryY=0.933;entryDx=0;entryDy=0;entryPerimeter=0;endFill=0;" edge="1" parent="1" source="ZZxbE7lgwn-muwn7ENjY-55" target="ZZxbE7lgwn-muwn7ENjY-108">
          <mxGeometry width="80" relative="1" as="geometry">
            <mxPoint x="476" y="169" as="sourcePoint" />
            <mxPoint x="596" y="400" as="targetPoint" />
          </mxGeometry>
        </mxCell>
        <mxCell id="ZZxbE7lgwn-muwn7ENjY-88" value="dotyczy" style="html=1;verticalAlign=bottom;endArrow=open;curved=0;rounded=0;entryX=-0.012;entryY=0.955;entryDx=0;entryDy=0;entryPerimeter=0;startFill=0;endFill=0;exitX=1;exitY=1;exitDx=0;exitDy=0;" edge="1" parent="1" source="ZZxbE7lgwn-muwn7ENjY-60" target="ZZxbE7lgwn-muwn7ENjY-77">
          <mxGeometry width="80" relative="1" as="geometry">
            <mxPoint x="60" y="573" as="sourcePoint" />
            <mxPoint x="140" y="573" as="targetPoint" />
          </mxGeometry>
        </mxCell>
      </root>
    </mxGraphModel>
  </diagram>
</mxfile>
